<svg id="Layer_1" data-name="Layer 1" xmlns="http://www.w3.org/2000/svg" viewBox="0 0 2560 1440"><defs><style>.cls-1{fill:#333;}</style></defs><title>level</title><rect class="cls-1" width="61.67" height="1440"/><rect class="cls-1" x="61.67" y="1385" width="2498.33" height="55"/><rect class="cls-1" x="2491" width="69" height="1385"/><circle class="cls-1" cx="365.67" cy="1179.67" r="62.67"/><circle class="cls-1" cx="609" cy="987" r="40.67"/><circle class="cls-1" cx="285" cy="792.33" r="42"/><circle class="cls-1" cx="849.67" cy="758.33" r="54.67"/><circle class="cls-1" cx="831" cy="1186.33" r="45.33"/><circle class="cls-1" cx="1179.67" cy="1077.67" r="78"/><circle class="cls-1" cx="912.33" cy="1029" r="20"/><circle class="cls-1" cx="822.33" cy="917.67" r="14"/><circle class="cls-1" cx="548.17" cy="777.17" r="57.17"/><circle class="cls-1" cx="351.67" cy="545.67" r="39.33"/><circle class="cls-1" cx="703" cy="489" r="34.67"/><circle class="cls-1" cx="1131.67" cy="644.33" r="30"/><circle class="cls-1" cx="1597" cy="952.33" r="42"/><circle class="cls-1" cx="1189.5" cy="848.5" r="9.83"/><circle class="cls-1" cx="1574.33" cy="511" r="4.67"/><circle class="cls-1" cx="1419.33" cy="686" r="41.67"/><circle class="cls-1" cx="1253" cy="458.33" r="73.33"/><circle class="cls-1" cx="1726" cy="811.33" r="13.67"/><circle class="cls-1" cx="1509" cy="1257.67" r="15.33"/><circle class="cls-1" cx="1846.67" cy="1164" r="86.33"/><circle class="cls-1" cx="1864.42" cy="947.25" r="17.75"/><circle class="cls-1" cx="1990.67" cy="734.83" r="42.33"/><circle class="cls-1" cx="1874.08" cy="597.58" r="27.42"/><circle class="cls-1" cx="2064" cy="451.33" r="31"/><circle class="cls-1" cx="2178.58" cy="731.25" r="3.58"/><circle class="cls-1" cx="2248.67" cy="614.67" r="29.67"/><circle class="cls-1" cx="2173.67" cy="957.67" r="29.33"/><circle class="cls-1" cx="2315" cy="839.67" r="18.67"/><circle class="cls-1" cx="2233" cy="1197.67" r="82"/><circle class="cls-1" cx="2333.33" cy="993.33" r="6.33"/><circle class="cls-1" cx="2010.83" cy="903.17" r="14.5"/><circle class="cls-1" cx="1650.17" cy="680.17" r="5.83"/><circle class="cls-1" cx="1723" cy="390.33" r="22.67"/><polygon class="cls-1" points="1310.32 940.65 1280.31 888.67 1310.32 836.68 1370.35 836.68 1400.36 888.67 1370.35 940.65 1310.32 940.65"/><polygon class="cls-1" points="1397.15 451.42 1374.97 413 1397.15 374.58 1441.52 374.58 1463.7 413 1441.52 451.42 1397.15 451.42"/><polygon class="cls-1" points="864.95 579.22 825.56 511 864.95 442.78 943.72 442.78 983.1 511 943.72 579.22 864.95 579.22"/><polygon class="cls-1" points="565.29 1163.93 543.59 1126.33 565.29 1088.74 608.71 1088.74 630.41 1126.33 608.71 1163.93 565.29 1163.93"/><polygon class="cls-1" points="1442.92 1208.02 1417.5 1164 1442.92 1119.98 1493.75 1119.98 1519.17 1164 1493.75 1208.02 1442.92 1208.02"/><path class="cls-1" d="M115,1307.67A510.79,510.79,0,0,1,229.67,1309c61,7.64,83.86,21.87,133.33,32,58.25,11.93,102.39,7.06,190.67-2.67,126.18-13.91,129.39-33.27,212-34.67,53.07-.89,51.28,7.11,185.33,26.67,128,18.68,192,28,254.67,22.67,100.75-8.62,103.33-34.54,198.67-37.33,54.59-1.6,56.63,6.81,196,26.67,133.17,19,201,28.23,260,17.33,73.11-13.49,77.14-33.45,140-34.67,56.65-1.1,63.59,14.91,172,32,92.8,14.63,131.51,9.81,154.67,5.33,42.84-8.28,98.89-28.19,97.33-42.67-0.55-5.1-8.13-8.53-14.67-10.67a330.63,330.63,0,0,1-88,28c-32.18,5.41-65.4,6-140-5.33-121.77-18.43-125.65-33.88-182.67-33.33-65.62.63-65.34,21.14-145.33,33.33-54.4,8.29-118.34.31-244-16C1458.32,1296,1460,1289,1408.33,1290.33c-98.45,2.47-101.39,27.74-205.33,34.67-57.61,3.84-118.85-4.55-241.33-21.33-145.71-20-143.05-28.12-197.33-26.67-79.33,2.13-80.16,19.43-213.33,34.67-82.46,9.44-124.77,14-177.33,5.33s-73-21.94-136-30.67a591.36,591.36,0,0,0-124-4Z"/><polygon class="cls-1" points="568.33 674.33 529.9 636.47 476.91 646.66 501.05 598.41 474.98 551.17 528.33 559.21 565.21 519.82 574.04 573.04 622.9 595.94 575.01 620.79 568.33 674.33"/><polygon class="cls-1" points="200.33 451.33 160.53 434.69 124.25 458.05 127.77 415.05 94.35 387.77 136.33 377.83 151.95 337.61 174.38 374.47 217.45 376.9 189.33 409.62 200.33 451.33"/><polygon class="cls-1" points="1032.33 903.67 998.37 886.86 965.26 905.31 970.75 867.81 942.97 842.03 980.33 835.67 996.27 801.28 1013.87 834.84 1051.49 839.37 1025.01 866.48 1032.33 903.67"/><polygon class="cls-1" points="320.33 993.33 283.42 990.57 260.22 1019.41 251.44 983.45 216.85 970.29 248.33 950.83 250.15 913.86 278.39 937.8 314.11 928.11 300.08 962.35 320.33 993.33"/><polygon class="cls-1" points="2044.33 1089 2015.9 1073.41 1986.94 1087.99 1992.99 1056.13 1970.17 1033.1 2002.33 1029 2017.19 1000.18 2031.03 1029.51 2063.03 1034.73 2039.41 1056.95 2044.33 1089"/><polygon class="cls-1" points="2095 585 2088.3 617.93 2111.62 642.12 2078.23 645.92 2062.43 675.58 2048.5 645 2015.41 639.14 2040.19 616.44 2035.54 583.16 2064.78 599.71 2095 585"/><polygon class="cls-1" points="2315 437 2304.14 470.01 2325.17 497.67 2290.42 497.54 2270.61 526.09 2260 493 2226.72 482.99 2254.91 462.67 2254.16 427.93 2282.19 448.46 2315 437"/><polygon class="cls-1" points="2401.67 346.33 2412.49 320.25 2397.15 296.55 2425.3 298.79 2443.1 276.87 2449.67 304.33 2476.01 314.49 2451.93 329.22 2450.41 357.42 2428.95 339.06 2401.67 346.33"/><polygon class="cls-1" points="1795 506.33 1776.83 497.53 1759.28 507.5 1762.04 487.5 1747.13 473.89 1767 470.33 1775.34 451.94 1784.86 469.75 1804.93 472 1790.94 486.56 1795 506.33"/></svg>